<svg version="1.1" viewBox="0.0 0.0 512.1653543307086 512.1653543307086" fill="none" stroke="none" stroke-linecap="square" stroke-miterlimit="10" xmlns:xlink="http://www.w3.org/1999/xlink" xmlns="http://www.w3.org/2000/svg"><clipPath id="gc3ad896197_0_17.0"><path d="m0 0l512.16534 0l0 512.16534l-512.16534 0l0 -512.16534z" clip-rule="nonzero"/></clipPath><g clip-path="url(#gc3ad896197_0_17.0)"><path fill="#ffffff" d="m0 0l512.16534 0l0 512.16534l-512.16534 0z" fill-rule="evenodd"/><path fill="#434343" d="m280.0 73.334l0 0c0 -18.409859 14.924133 -33.334 33.334015 -33.334l165.33197 0c8.840729 0 17.319366 3.5119667 23.57071 9.763302c6.251343 6.251339 9.763306 14.729969 9.763306 23.570698l0 133.332c0 18.409866 -14.924133 33.334 -33.334015 33.334l-165.33197 0c-18.409882 0 -33.334015 -14.924133 -33.334015 -33.334z" fill-rule="evenodd"/><path stroke="#434343" stroke-width="1.0" stroke-linejoin="round" stroke-linecap="butt" d="m280.0 73.334l0 0c0 -18.409859 14.924133 -33.334 33.334015 -33.334l165.33197 0c8.840729 0 17.319366 3.5119667 23.57071 9.763302c6.251343 6.251339 9.763306 14.729969 9.763306 23.570698l0 133.332c0 18.409866 -14.924133 33.334 -33.334015 33.334l-165.33197 0c-18.409882 0 -33.334015 -14.924133 -33.334015 -33.334z" fill-rule="evenodd"/><path fill="#434343" d="m280.0 305.313l0 0c0 -18.398254 14.914734 -33.31299 33.31299 -33.31299l165.37402 0c8.835144 0 17.308441 3.5097656 23.555847 9.757141c6.2473755 6.247406 9.757141 14.720703 9.757141 23.555847l0 133.24802c0 18.398285 -14.914734 33.31302 -33.31299 33.31302l-165.37402 0c-18.398254 0 -33.31299 -14.914734 -33.31299 -33.31302z" fill-rule="evenodd"/><path stroke="#434343" stroke-width="1.0" stroke-linejoin="round" stroke-linecap="butt" d="m280.0 305.313l0 0c0 -18.398254 14.914734 -33.31299 33.31299 -33.31299l165.37402 0c8.835144 0 17.308441 3.5097656 23.555847 9.757141c6.2473755 6.247406 9.757141 14.720703 9.757141 23.555847l0 133.24802c0 18.398285 -14.914734 33.31302 -33.31299 33.31302l-165.37402 0c-18.398254 0 -33.31299 -14.914734 -33.31299 -33.31302z" fill-rule="evenodd"/><path fill="#434343" d="m0 73.334l0 0c0 -18.409859 14.92414 -33.334 33.334 -33.334l165.332 0c8.840729 0 17.319366 3.5119667 23.570694 9.763302c6.251343 6.251339 9.763306 14.729969 9.763306 23.570698l0 133.332c0 18.409866 -14.924133 33.334 -33.334 33.334l-165.332 0c-18.409859 0 -33.334 -14.924133 -33.334 -33.334z" fill-rule="evenodd"/><path stroke="#434343" stroke-width="1.0" stroke-linejoin="round" stroke-linecap="butt" d="m0 73.334l0 0c0 -18.409859 14.92414 -33.334 33.334 -33.334l165.332 0c8.840729 0 17.319366 3.5119667 23.570694 9.763302c6.251343 6.251339 9.763306 14.729969 9.763306 23.570698l0 133.332c0 18.409866 -14.924133 33.334 -33.334 33.334l-165.332 0c-18.409859 0 -33.334 -14.924133 -33.334 -33.334z" fill-rule="evenodd"/><path fill="#434343" d="m0 305.334l0 0c0 -18.409882 14.92414 -33.334015 33.334 -33.334015l165.332 0c8.840729 0 17.319366 3.511963 23.570694 9.763306c6.251343 6.251343 9.763306 14.72998 9.763306 23.57071l0 133.33197c0 18.409882 -14.924133 33.334015 -33.334 33.334015l-165.332 0c-18.409859 0 -33.334 -14.924133 -33.334 -33.334015z" fill-rule="evenodd"/><path stroke="#434343" stroke-width="1.0" stroke-linejoin="round" stroke-linecap="butt" d="m0 305.334l0 0c0 -18.409882 14.92414 -33.334015 33.334 -33.334015l165.332 0c8.840729 0 17.319366 3.511963 23.570694 9.763306c6.251343 6.251343 9.763306 14.72998 9.763306 23.57071l0 133.33197c0 18.409882 -14.924133 33.334015 -33.334 33.334015l-165.332 0c-18.409859 0 -33.334 -14.924133 -33.334 -33.334015z" fill-rule="evenodd"/></g></svg>