<svg version="1.1" viewBox="0.0 0.0 512.1653543307086 512.1653543307086" fill="none" stroke="none" stroke-linecap="square" stroke-miterlimit="10" xmlns:xlink="http://www.w3.org/1999/xlink" xmlns="http://www.w3.org/2000/svg"><clipPath id="gc3ad896197_0_5.0"><path d="m0 0l512.16534 0l0 512.16534l-512.16534 0l0 -512.16534z" clip-rule="nonzero"/></clipPath><g clip-path="url(#gc3ad896197_0_5.0)"><path fill="#ffffff" d="m0 0l512.16534 0l0 512.16534l-512.16534 0z" fill-rule="evenodd"/><path fill="#434343" d="m0 78.66744l0 0c0 -21.355438 17.312002 -38.667442 38.66744 -38.667442l154.66513 0l0 0c10.255234 0 20.090454 4.0738792 27.34201 11.325432c7.251541 7.2515526 11.325424 17.08677 11.325424 27.34201l0 354.6651c0 21.355438 -17.311996 38.66745 -38.667435 38.66745l-154.66513 0c-21.355436 0 -38.66744 -17.312012 -38.66744 -38.66745z" fill-rule="evenodd"/><path stroke="#434343" stroke-width="1.0" stroke-linejoin="round" stroke-linecap="butt" d="m0 78.66744l0 0c0 -21.355438 17.312002 -38.667442 38.66744 -38.667442l154.66513 0l0 0c10.255234 0 20.090454 4.0738792 27.34201 11.325432c7.251541 7.2515526 11.325424 17.08677 11.325424 27.34201l0 354.6651c0 21.355438 -17.311996 38.66745 -38.667435 38.66745l-154.66513 0c-21.355436 0 -38.66744 -17.312012 -38.66744 -38.66745z" fill-rule="evenodd"/><path fill="#434343" d="m280.0 78.66744l0 0c0 -21.355438 17.312012 -38.667442 38.66745 -38.667442l154.6651 0l0 0c10.255249 0 20.090454 4.0738792 27.34201 11.325432c7.2515564 7.2515526 11.325439 17.08677 11.325439 27.34201l0 354.6651c0 21.355438 -17.312012 38.66745 -38.66745 38.66745l-154.6651 0c-21.355438 0 -38.66745 -17.312012 -38.66745 -38.66745z" fill-rule="evenodd"/><path stroke="#434343" stroke-width="1.0" stroke-linejoin="round" stroke-linecap="butt" d="m280.0 78.66744l0 0c0 -21.355438 17.312012 -38.667442 38.66745 -38.667442l154.6651 0l0 0c10.255249 0 20.090454 4.0738792 27.34201 11.325432c7.2515564 7.2515526 11.325439 17.08677 11.325439 27.34201l0 354.6651c0 21.355438 -17.312012 38.66745 -38.66745 38.66745l-154.6651 0c-21.355438 0 -38.66745 -17.312012 -38.66745 -38.66745z" fill-rule="evenodd"/></g></svg>