<svg version="1.1" viewBox="0.0 0.0 512.1653543307086 512.1653543307086" fill="none" stroke="none" stroke-linecap="square" stroke-miterlimit="10" xmlns:xlink="http://www.w3.org/1999/xlink" xmlns="http://www.w3.org/2000/svg"><clipPath id="gc3ad896197_0_0.0"><path d="m0 0l512.16534 0l0 512.16534l-512.16534 0l0 -512.16534z" clip-rule="nonzero"/></clipPath><g clip-path="url(#gc3ad896197_0_0.0)"><path fill="#000000" fill-opacity="0.0" d="m0 0l512.16534 0l0 512.16534l-512.16534 0z" fill-rule="evenodd"/><path fill="#434343" d="m0 109.33472l0 0c0 -38.292503 31.042212 -69.33472 69.33472 -69.33472l373.33057 0c18.388702 0 36.02426 7.304886 49.02704 20.30767c13.002777 13.002785 20.307678 30.638336 20.307678 49.027046l0 277.33057c0 38.29251 -31.042206 69.33472 -69.33472 69.33472l-373.33057 0l0 0c-38.292503 0 -69.33472 -31.042206 -69.33472 -69.33472z" fill-rule="evenodd"/><path stroke="#434343" stroke-width="1.0" stroke-linejoin="round" stroke-linecap="butt" d="m0 109.33472l0 0c0 -38.292503 31.042212 -69.33472 69.33472 -69.33472l373.33057 0c18.388702 0 36.02426 7.304886 49.02704 20.30767c13.002777 13.002785 20.307678 30.638336 20.307678 49.027046l0 277.33057c0 38.29251 -31.042206 69.33472 -69.33472 69.33472l-373.33057 0l0 0c-38.292503 0 -69.33472 -31.042206 -69.33472 -69.33472z" fill-rule="evenodd"/></g></svg>